<svg id="visual" viewBox="0 0 960 540" width="960" height="540" xmlns="http://www.w3.org/2000/svg" xmlns:xlink="http://www.w3.org/1999/xlink" version="1.1"><g><g transform="translate(492 173)"><path d="M59.9 -22.2C67.1 2.9 55.3 31.4 33.6 47.5C11.8 63.6 -19.9 67.3 -38.6 53.6C-57.3 39.9 -62.9 8.8 -54.3 -18.1C-45.7 -45 -22.9 -67.6 1.7 -68.2C26.3 -68.8 52.6 -47.2 59.9 -22.2Z" stroke="#9d2d17" fill="none" stroke-width="24"></path></g><g transform="translate(119 97)"><path d="M46.5 -15.6C52.2 2.4 43.1 24.6 26.9 36.3C10.6 48 -12.9 49 -29.2 37.8C-45.4 26.5 -54.4 2.9 -48.4 -15.5C-42.3 -34 -21.2 -47.4 -0.4 -47.3C20.4 -47.2 40.8 -33.6 46.5 -15.6Z" stroke="#9d2d17" fill="none" stroke-width="24"></path></g><g transform="translate(554 438)"><path d="M26.5 -9.6C29.9 2.1 25.4 15.4 15.5 23C5.6 30.6 -9.7 32.5 -19.7 25.5C-29.7 18.6 -34.5 2.9 -30.3 -9.7C-26.2 -22.4 -13.1 -32 -0.8 -31.8C11.5 -31.5 23 -21.4 26.5 -9.6Z" stroke="#9d2d17" fill="none" stroke-width="24"></path></g><g transform="translate(946 500)"><path d="M11.1 -3.5C12.6 1.1 10.9 6.9 7.2 9.5C3.5 12.1 -2.2 11.5 -6.4 8.5C-10.6 5.5 -13.3 0.2 -11.9 -4.1C-10.6 -8.5 -5.3 -11.7 -0.3 -11.6C4.8 -11.6 9.6 -8.1 11.1 -3.5Z" stroke="#9d2d17" fill="none" stroke-width="24"></path></g><g transform="translate(913 31)"><path d="M59.1 -19.4C67 5.1 57.2 35.2 36.2 50.6C15.2 66.1 -17 66.9 -36.3 52.4C-55.5 37.8 -61.7 7.9 -53.5 -17C-45.3 -41.9 -22.7 -61.8 1.5 -62.3C25.6 -62.7 51.2 -43.8 59.1 -19.4Z" stroke="#9d2d17" fill="none" stroke-width="24"></path></g><g transform="translate(317 344)"><path d="M18.4 -6.4C20.7 1.1 17.2 10 10.7 14.8C4.1 19.6 -5.5 20.2 -11.6 15.8C-17.7 11.4 -20.3 2 -17.7 -5.8C-15.2 -13.6 -7.6 -19.7 0.2 -19.8C8.1 -19.8 16.1 -13.8 18.4 -6.4Z" stroke="#9d2d17" fill="none" stroke-width="24"></path></g><g transform="translate(677 241)"><path d="M48.2 -18.2C54.4 3.5 45.9 27.5 27.9 41.4C9.8 55.2 -17.8 58.9 -36.7 46.2C-55.6 33.5 -65.7 4.4 -58.2 -19.2C-50.6 -42.8 -25.3 -61 -2.2 -60.3C21 -59.6 42 -40 48.2 -18.2Z" stroke="#9d2d17" fill="none" stroke-width="24"></path></g><g transform="translate(894 224)"><path d="M8.3 -2.7C9.2 0.1 7.3 3.8 4.4 5.8C1.5 7.8 -2.4 8.2 -5 6.5C-7.5 4.7 -8.8 0.7 -7.7 -2.3C-6.7 -5.2 -3.3 -7.2 0.2 -7.3C3.7 -7.3 7.4 -5.5 8.3 -2.7Z" stroke="#9d2d17" fill="none" stroke-width="24"></path></g><g transform="translate(34 294)"><path d="M65.3 -20.8C73.7 4.7 62.1 37.1 40.5 51.9C18.9 66.6 -12.7 63.8 -34.4 47.9C-56.1 32.1 -67.9 3.1 -60.5 -21C-53.1 -45.1 -26.6 -64.2 0.9 -64.5C28.4 -64.8 56.9 -46.3 65.3 -20.8Z" stroke="#9d2d17" fill="none" stroke-width="24"></path></g><g transform="translate(57 511)"><path d="M36.3 -11C40.9 2.5 34.3 20.3 22.6 28.2C10.8 36.1 -6.2 34 -18.5 25.1C-30.8 16.3 -38.4 0.7 -34.5 -11.7C-30.6 -24.2 -15.3 -33.4 0.3 -33.5C15.8 -33.5 31.7 -24.5 36.3 -11Z" stroke="#9d2d17" fill="none" stroke-width="24"></path></g><g transform="translate(319 27)"><path d="M65.3 -19.7C73 2.4 59.5 32.9 37.2 48.4C14.9 63.9 -16.2 64.5 -37.6 49.4C-59 34.4 -70.8 3.8 -62.9 -18.6C-55 -40.9 -27.5 -55 0.7 -55.2C28.8 -55.4 57.6 -41.8 65.3 -19.7Z" stroke="#9d2d17" fill="none" stroke-width="24"></path></g><g transform="translate(753 427)"><path d="M8.9 -2.6C10.2 1 8.9 5.7 5.8 8C2.7 10.2 -2.2 10 -5.4 7.6C-8.6 5.2 -10.1 0.7 -8.9 -2.8C-7.8 -6.3 -3.9 -8.7 0 -8.7C3.8 -8.7 7.7 -6.2 8.9 -2.6Z" stroke="#9d2d17" fill="none" stroke-width="24"></path></g><g transform="translate(354 536)"><path d="M12.6 -3.7C14.2 0.9 12 7.2 7.7 10.3C3.4 13.3 -3 13.2 -7.4 10C-11.8 6.9 -14.1 0.8 -12.5 -3.8C-10.9 -8.3 -5.5 -11.2 0 -11.2C5.5 -11.2 10.9 -8.3 12.6 -3.7Z" stroke="#9d2d17" fill="none" stroke-width="24"></path></g><g transform="translate(676 49)"><path d="M28 -9.4C31.6 2 26.7 16 16.9 23C7.1 30 -7.4 30.2 -17.9 23C-28.4 15.8 -34.7 1.2 -31.1 -10.3C-27.4 -21.8 -13.7 -30.2 -0.8 -30C12.2 -29.7 24.4 -20.8 28 -9.4Z" stroke="#9d2d17" fill="none" stroke-width="24"></path></g></g></svg>