<svg id="visual" viewBox="0 0 960 540" width="960" height="540" xmlns="http://www.w3.org/2000/svg" xmlns:xlink="http://www.w3.org/1999/xlink" version="1.1"><rect x="0" y="0" width="960" height="540" fill="#05040a"></rect><path d="M0 451L74 463L148 417L222 436L295 484L369 465L443 437L517 422L591 452L665 427L738 448L812 469L886 469L960 442L960 541L886 541L812 541L738 541L665 541L591 541L517 541L443 541L369 541L295 541L222 541L148 541L74 541L0 541Z" fill="#f5730a"></path><path d="M0 427L74 428L148 422L222 472L295 479L369 440L443 481L517 434L591 470L665 484L738 417L812 425L886 471L960 477L960 541L886 541L812 541L738 541L665 541L591 541L517 541L443 541L369 541L295 541L222 541L148 541L74 541L0 541Z" fill="#e86910"></path><path d="M0 476L74 483L148 456L222 472L295 469L369 459L443 451L517 484L591 478L665 481L738 469L812 444L886 452L960 450L960 541L886 541L812 541L738 541L665 541L591 541L517 541L443 541L369 541L295 541L222 541L148 541L74 541L0 541Z" fill="#da5f13"></path><path d="M0 497L74 462L148 468L222 480L295 458L369 474L443 467L517 478L591 492L665 486L738 470L812 442L886 464L960 473L960 541L886 541L812 541L738 541L665 541L591 541L517 541L443 541L369 541L295 541L222 541L148 541L74 541L0 541Z" fill="#cd5615"></path><path d="M0 481L74 482L148 469L222 503L295 493L369 457L443 492L517 463L591 457L665 503L738 490L812 498L886 495L960 456L960 541L886 541L812 541L738 541L665 541L591 541L517 541L443 541L369 541L295 541L222 541L148 541L74 541L0 541Z" fill="#bf4c16"></path><path d="M0 486L74 511L148 510L222 483L295 479L369 502L443 471L517 468L591 488L665 466L738 497L812 501L886 500L960 481L960 541L886 541L812 541L738 541L665 541L591 541L517 541L443 541L369 541L295 541L222 541L148 541L74 541L0 541Z" fill="#b14416"></path><path d="M0 515L74 502L148 483L222 491L295 494L369 516L443 508L517 514L591 492L665 515L738 490L812 501L886 490L960 487L960 541L886 541L812 541L738 541L665 541L591 541L517 541L443 541L369 541L295 541L222 541L148 541L74 541L0 541Z" fill="#a33b16"></path><path d="M0 497L74 499L148 498L222 497L295 504L369 491L443 498L517 491L591 500L665 518L738 496L812 507L886 502L960 501L960 541L886 541L812 541L738 541L665 541L591 541L517 541L443 541L369 541L295 541L222 541L148 541L74 541L0 541Z" fill="#963315"></path><path d="M0 520L74 522L148 510L222 516L295 510L369 513L443 526L517 508L591 522L665 525L738 511L812 507L886 522L960 517L960 541L886 541L812 541L738 541L665 541L591 541L517 541L443 541L369 541L295 541L222 541L148 541L74 541L0 541Z" fill="#882b14"></path><path d="M0 522L74 533L148 526L222 517L295 516L369 526L443 519L517 527L591 518L665 525L738 520L812 518L886 523L960 521L960 541L886 541L812 541L738 541L665 541L591 541L517 541L443 541L369 541L295 541L222 541L148 541L74 541L0 541Z" fill="#7a2412"></path></svg>