<svg id="visual" viewBox="0 0 960 540" width="960" height="540" xmlns="http://www.w3.org/2000/svg" xmlns:xlink="http://www.w3.org/1999/xlink" version="1.1"><path d="M0 354L22.8 356.8C45.7 359.7 91.3 365.3 137 360.5C182.7 355.7 228.3 340.3 274 334.7C319.7 329 365.3 333 411.2 344.5C457 356 503 375 548.8 378.5C594.7 382 640.3 370 686 368.7C731.7 367.3 777.3 376.7 823 376.5C868.7 376.3 914.3 366.7 937.2 361.8L960 357L960 541L937.2 541C914.3 541 868.7 541 823 541C777.3 541 731.7 541 686 541C640.3 541 594.7 541 548.8 541C503 541 457 541 411.2 541C365.3 541 319.7 541 274 541C228.3 541 182.7 541 137 541C91.3 541 45.7 541 22.8 541L0 541Z" fill="#f5730a"></path><path d="M0 366L22.8 365.8C45.7 365.7 91.3 365.3 137 363.3C182.7 361.3 228.3 357.7 274 368.5C319.7 379.3 365.3 404.7 411.2 413.7C457 422.7 503 415.3 548.8 410.8C594.7 406.3 640.3 404.7 686 403.2C731.7 401.7 777.3 400.3 823 396.2C868.7 392 914.3 385 937.2 381.5L960 378L960 541L937.2 541C914.3 541 868.7 541 823 541C777.3 541 731.7 541 686 541C640.3 541 594.7 541 548.8 541C503 541 457 541 411.2 541C365.3 541 319.7 541 274 541C228.3 541 182.7 541 137 541C91.3 541 45.7 541 22.8 541L0 541Z" fill="#dd5f13"></path><path d="M0 442L22.8 441.5C45.7 441 91.3 440 137 438.2C182.7 436.3 228.3 433.7 274 433.2C319.7 432.7 365.3 434.3 411.2 436.3C457 438.3 503 440.7 548.8 434.2C594.7 427.7 640.3 412.3 686 405.5C731.7 398.7 777.3 400.3 823 408.5C868.7 416.7 914.3 431.3 937.2 438.7L960 446L960 541L937.2 541C914.3 541 868.7 541 823 541C777.3 541 731.7 541 686 541C640.3 541 594.7 541 548.8 541C503 541 457 541 411.2 541C365.3 541 319.7 541 274 541C228.3 541 182.7 541 137 541C91.3 541 45.7 541 22.8 541L0 541Z" fill="#c54d17"></path><path d="M0 447L22.8 446.3C45.7 445.7 91.3 444.3 137 445.5C182.7 446.7 228.3 450.3 274 448.7C319.7 447 365.3 440 411.2 438.5C457 437 503 441 548.8 442.3C594.7 443.7 640.3 442.3 686 443.8C731.7 445.3 777.3 449.7 823 454.3C868.7 459 914.3 464 937.2 466.5L960 469L960 541L937.2 541C914.3 541 868.7 541 823 541C777.3 541 731.7 541 686 541C640.3 541 594.7 541 548.8 541C503 541 457 541 411.2 541C365.3 541 319.7 541 274 541C228.3 541 182.7 541 137 541C91.3 541 45.7 541 22.8 541L0 541Z" fill="#ac3b18"></path><path d="M0 492L22.8 493.7C45.7 495.3 91.3 498.7 137 499.8C182.7 501 228.3 500 274 495.7C319.7 491.3 365.3 483.7 411.2 485.5C457 487.3 503 498.7 548.8 505C594.7 511.3 640.3 512.7 686 509.5C731.7 506.3 777.3 498.7 823 492.8C868.7 487 914.3 483 937.2 481L960 479L960 541L937.2 541C914.3 541 868.7 541 823 541C777.3 541 731.7 541 686 541C640.3 541 594.7 541 548.8 541C503 541 457 541 411.2 541C365.3 541 319.7 541 274 541C228.3 541 182.7 541 137 541C91.3 541 45.7 541 22.8 541L0 541Z" fill="#922b16"></path></svg>