<svg id="visual" viewBox="0 0 960 540" width="960" height="540" xmlns="http://www.w3.org/2000/svg" xmlns:xlink="http://www.w3.org/1999/xlink" version="1.1"><path d="M0 363L80 379L160 379L240 424L320 379L400 362L480 415L560 432L640 399L720 413L800 404L880 378L960 410L960 541L880 541L800 541L720 541L640 541L560 541L480 541L400 541L320 541L240 541L160 541L80 541L0 541Z" fill="#f5730a"></path><path d="M0 418L80 415L160 410L240 375L320 434L400 449L480 424L560 408L640 466L720 413L800 399L880 395L960 383L960 541L880 541L800 541L720 541L640 541L560 541L480 541L400 541L320 541L240 541L160 541L80 541L0 541Z" fill="#dd5f13"></path><path d="M0 441L80 402L160 395L240 400L320 475L400 488L480 452L560 485L640 483L720 433L800 460L880 461L960 470L960 541L880 541L800 541L720 541L640 541L560 541L480 541L400 541L320 541L240 541L160 541L80 541L0 541Z" fill="#c54d17"></path><path d="M0 499L80 502L160 437L240 429L320 493L400 444L480 479L560 475L640 469L720 491L800 434L880 501L960 496L960 541L880 541L800 541L720 541L640 541L560 541L480 541L400 541L320 541L240 541L160 541L80 541L0 541Z" fill="#ac3b18"></path><path d="M0 507L80 502L160 477L240 473L320 514L400 520L480 492L560 512L640 500L720 519L800 520L880 487L960 515L960 541L880 541L800 541L720 541L640 541L560 541L480 541L400 541L320 541L240 541L160 541L80 541L0 541Z" fill="#922b16"></path></svg>