<svg id="visual" viewBox="0 0 960 540" width="960" height="540" xmlns="http://www.w3.org/2000/svg" xmlns:xlink="http://www.w3.org/1999/xlink" version="1.1"><path d="M0 385L10.7 383.8C21.3 382.7 42.7 380.3 64 385.7C85.3 391 106.7 404 128 405.5C149.3 407 170.7 397 192 396.7C213.3 396.3 234.7 405.7 256 407.3C277.3 409 298.7 403 320 402.2C341.3 401.3 362.7 405.7 384 401.7C405.3 397.7 426.7 385.3 448 385.7C469.3 386 490.7 399 512 404.3C533.3 409.7 554.7 407.3 576 406.8C597.3 406.3 618.7 407.7 640 403C661.3 398.3 682.7 387.7 704 385.8C725.3 384 746.7 391 768 395.2C789.3 399.3 810.7 400.7 832 398.2C853.3 395.7 874.7 389.3 896 387.3C917.3 385.3 938.7 387.7 949.3 388.8L960 390L960 541L949.3 541C938.7 541 917.3 541 896 541C874.7 541 853.3 541 832 541C810.7 541 789.3 541 768 541C746.7 541 725.3 541 704 541C682.7 541 661.3 541 640 541C618.7 541 597.3 541 576 541C554.7 541 533.3 541 512 541C490.7 541 469.3 541 448 541C426.7 541 405.3 541 384 541C362.7 541 341.3 541 320 541C298.7 541 277.3 541 256 541C234.7 541 213.3 541 192 541C170.7 541 149.3 541 128 541C106.7 541 85.3 541 64 541C42.7 541 21.3 541 10.7 541L0 541Z" fill="#f5730a"></path><path d="M0 418L10.7 415.5C21.3 413 42.7 408 64 406C85.3 404 106.7 405 128 407.3C149.3 409.7 170.7 413.3 192 411C213.3 408.7 234.7 400.3 256 401.8C277.3 403.3 298.7 414.7 320 421.3C341.3 428 362.7 430 384 429.2C405.3 428.3 426.7 424.7 448 419C469.3 413.3 490.7 405.7 512 405.7C533.3 405.7 554.7 413.3 576 412.7C597.3 412 618.7 403 640 398.5C661.3 394 682.7 394 704 393.7C725.3 393.3 746.7 392.7 768 393.2C789.3 393.7 810.7 395.3 832 397C853.3 398.7 874.7 400.3 896 406.2C917.3 412 938.7 422 949.3 427L960 432L960 541L949.3 541C938.7 541 917.3 541 896 541C874.7 541 853.3 541 832 541C810.7 541 789.3 541 768 541C746.7 541 725.3 541 704 541C682.7 541 661.3 541 640 541C618.7 541 597.3 541 576 541C554.7 541 533.3 541 512 541C490.7 541 469.3 541 448 541C426.7 541 405.3 541 384 541C362.7 541 341.3 541 320 541C298.7 541 277.3 541 256 541C234.7 541 213.3 541 192 541C170.7 541 149.3 541 128 541C106.7 541 85.3 541 64 541C42.7 541 21.3 541 10.7 541L0 541Z" fill="#e26411"></path><path d="M0 447L10.7 444.2C21.3 441.3 42.7 435.7 64 435.7C85.3 435.7 106.7 441.3 128 440.8C149.3 440.3 170.7 433.7 192 429.7C213.3 425.7 234.7 424.3 256 428C277.3 431.7 298.7 440.3 320 438.8C341.3 437.3 362.7 425.7 384 421.3C405.3 417 426.7 420 448 421.3C469.3 422.7 490.7 422.3 512 424.7C533.3 427 554.7 432 576 435.5C597.3 439 618.7 441 640 439C661.3 437 682.7 431 704 428C725.3 425 746.7 425 768 428.2C789.3 431.3 810.7 437.7 832 439.3C853.3 441 874.7 438 896 433.3C917.3 428.7 938.7 422.3 949.3 419.2L960 416L960 541L949.3 541C938.7 541 917.3 541 896 541C874.7 541 853.3 541 832 541C810.7 541 789.3 541 768 541C746.7 541 725.3 541 704 541C682.7 541 661.3 541 640 541C618.7 541 597.3 541 576 541C554.7 541 533.3 541 512 541C490.7 541 469.3 541 448 541C426.7 541 405.3 541 384 541C362.7 541 341.3 541 320 541C298.7 541 277.3 541 256 541C234.7 541 213.3 541 192 541C170.7 541 149.3 541 128 541C106.7 541 85.3 541 64 541C42.7 541 21.3 541 10.7 541L0 541Z" fill="#ce5614"></path><path d="M0 455L10.7 451.7C21.3 448.3 42.7 441.7 64 439.5C85.3 437.3 106.7 439.7 128 443.7C149.3 447.7 170.7 453.3 192 454C213.3 454.7 234.7 450.3 256 446.3C277.3 442.3 298.7 438.7 320 441.2C341.3 443.7 362.7 452.3 384 452.3C405.3 452.3 426.7 443.7 448 440.8C469.3 438 490.7 441 512 440.8C533.3 440.7 554.7 437.3 576 438.8C597.3 440.3 618.7 446.7 640 447.8C661.3 449 682.7 445 704 445C725.3 445 746.7 449 768 450.5C789.3 452 810.7 451 832 451.8C853.3 452.7 874.7 455.3 896 455.8C917.3 456.3 938.7 454.7 949.3 453.8L960 453L960 541L949.3 541C938.7 541 917.3 541 896 541C874.7 541 853.3 541 832 541C810.7 541 789.3 541 768 541C746.7 541 725.3 541 704 541C682.7 541 661.3 541 640 541C618.7 541 597.3 541 576 541C554.7 541 533.3 541 512 541C490.7 541 469.3 541 448 541C426.7 541 405.3 541 384 541C362.7 541 341.3 541 320 541C298.7 541 277.3 541 256 541C234.7 541 213.3 541 192 541C170.7 541 149.3 541 128 541C106.7 541 85.3 541 64 541C42.7 541 21.3 541 10.7 541L0 541Z" fill="#ba4815"></path><path d="M0 461L10.7 463.5C21.3 466 42.7 471 64 472.8C85.3 474.7 106.7 473.3 128 473C149.3 472.7 170.7 473.3 192 473C213.3 472.7 234.7 471.3 256 472.2C277.3 473 298.7 476 320 476C341.3 476 362.7 473 384 472.8C405.3 472.7 426.7 475.3 448 473.8C469.3 472.3 490.7 466.7 512 465C533.3 463.3 554.7 465.7 576 467.5C597.3 469.3 618.7 470.7 640 471C661.3 471.3 682.7 470.7 704 470C725.3 469.3 746.7 468.7 768 470.3C789.3 472 810.7 476 832 477C853.3 478 874.7 476 896 473.7C917.3 471.3 938.7 468.7 949.3 467.3L960 466L960 541L949.3 541C938.7 541 917.3 541 896 541C874.7 541 853.3 541 832 541C810.7 541 789.3 541 768 541C746.7 541 725.3 541 704 541C682.7 541 661.3 541 640 541C618.7 541 597.3 541 576 541C554.7 541 533.3 541 512 541C490.7 541 469.3 541 448 541C426.7 541 405.3 541 384 541C362.7 541 341.3 541 320 541C298.7 541 277.3 541 256 541C234.7 541 213.3 541 192 541C170.7 541 149.3 541 128 541C106.7 541 85.3 541 64 541C42.7 541 21.3 541 10.7 541L0 541Z" fill="#a63b15"></path><path d="M0 480L10.7 479.8C21.3 479.7 42.7 479.3 64 479.8C85.3 480.3 106.7 481.7 128 482.7C149.3 483.7 170.7 484.3 192 484.8C213.3 485.3 234.7 485.7 256 486C277.3 486.3 298.7 486.7 320 486C341.3 485.3 362.7 483.7 384 482.7C405.3 481.7 426.7 481.3 448 481.7C469.3 482 490.7 483 512 483.5C533.3 484 554.7 484 576 483.7C597.3 483.3 618.7 482.7 640 484.3C661.3 486 682.7 490 704 492.2C725.3 494.3 746.7 494.7 768 492.5C789.3 490.3 810.7 485.7 832 483.8C853.3 482 874.7 483 896 485.5C917.3 488 938.7 492 949.3 494L960 496L960 541L949.3 541C938.7 541 917.3 541 896 541C874.7 541 853.3 541 832 541C810.7 541 789.3 541 768 541C746.7 541 725.3 541 704 541C682.7 541 661.3 541 640 541C618.7 541 597.3 541 576 541C554.7 541 533.3 541 512 541C490.7 541 469.3 541 448 541C426.7 541 405.3 541 384 541C362.7 541 341.3 541 320 541C298.7 541 277.3 541 256 541C234.7 541 213.3 541 192 541C170.7 541 149.3 541 128 541C106.7 541 85.3 541 64 541C42.7 541 21.3 541 10.7 541L0 541Z" fill="#922f13"></path><path d="M0 505L10.7 504.7C21.3 504.3 42.7 503.7 64 503.7C85.3 503.7 106.7 504.3 128 505.3C149.3 506.3 170.7 507.7 192 506.8C213.3 506 234.7 503 256 501.8C277.3 500.7 298.7 501.3 320 503.3C341.3 505.3 362.7 508.7 384 510.2C405.3 511.7 426.7 511.3 448 509.7C469.3 508 490.7 505 512 504.7C533.3 504.3 554.7 506.7 576 507.8C597.3 509 618.7 509 640 509.2C661.3 509.3 682.7 509.7 704 508C725.3 506.3 746.7 502.7 768 501.7C789.3 500.7 810.7 502.3 832 502.7C853.3 503 874.7 502 896 502.5C917.3 503 938.7 505 949.3 506L960 507L960 541L949.3 541C938.7 541 917.3 541 896 541C874.7 541 853.3 541 832 541C810.7 541 789.3 541 768 541C746.7 541 725.3 541 704 541C682.7 541 661.3 541 640 541C618.7 541 597.3 541 576 541C554.7 541 533.3 541 512 541C490.7 541 469.3 541 448 541C426.7 541 405.3 541 384 541C362.7 541 341.3 541 320 541C298.7 541 277.3 541 256 541C234.7 541 213.3 541 192 541C170.7 541 149.3 541 128 541C106.7 541 85.3 541 64 541C42.7 541 21.3 541 10.7 541L0 541Z" fill="#7e2311"></path></svg>